<?xml version="1.0" encoding="UTF-8"?>
<svg xmlns="http://www.w3.org/2000/svg" xmlns:xlink="http://www.w3.org/1999/xlink" width="65px" height="70px" viewBox="0 0 65 76" version="1.1">
<g id="surface1">
<path style=" stroke:none;fill-rule:nonzero;fill:rgb(0%,26.666668%,50.980395%);fill-opacity:1;" d="M 64.082031 23.527344 C 64.105469 22.441406 63.839844 21.363281 63.3125 20.410156 C 62.761719 19.484375 61.972656 18.722656 61.023438 18.203125 C 52.613281 13.40625 44.199219 8.613281 35.78125 3.824219 C 33.515625 2.53125 31.316406 2.578125 29.066406 3.894531 C 25.71875 5.835938 8.953125 15.339844 3.960938 18.203125 C 1.902344 19.378906 0.902344 21.183594 0.902344 23.527344 L 0.902344 52.472656 C 0.882812 53.539062 1.136719 54.59375 1.644531 55.535156 C 2.191406 56.488281 2.996094 57.269531 3.964844 57.796875 C 8.964844 60.667969 25.730469 70.160156 29.078125 72.113281 C 31.328125 73.429688 33.523438 73.472656 35.796875 72.179688 C 44.207031 67.375 52.621094 62.582031 61.039062 57.796875 C 62.011719 57.265625 62.816406 56.484375 63.363281 55.53125 C 63.871094 54.589844 64.125 53.539062 64.105469 52.472656 L 64.105469 23.527344 Z M 64.082031 23.527344 "/>
<path style=" stroke:none;fill-rule:nonzero;fill:rgb(0%,34.901962%,61.176473%);fill-opacity:1;" d="M 64.085938 52.472656 C 64.109375 53.539062 63.855469 54.59375 63.347656 55.535156 C 63.222656 55.757812 63.082031 55.972656 62.925781 56.179688 L 32.492188 38 L 61.023438 18.203125 C 61.972656 18.722656 62.761719 19.484375 63.308594 20.410156 C 63.839844 21.363281 64.105469 22.4375 64.082031 23.527344 C 64.085938 33.179688 64.085938 52.472656 64.085938 52.472656 Z M 64.085938 52.472656 "/>
<path style=" stroke:none;fill-rule:nonzero;fill:rgb(39.607844%,60.392159%,82.352942%);fill-opacity:1;" d="M 63.308594 20.410156 L 1.632812 55.535156 C 1.128906 54.59375 0.875 53.542969 0.898438 52.476562 L 0.898438 23.527344 C 0.898438 21.183594 1.902344 19.378906 3.957031 18.203125 C 8.953125 15.339844 25.71875 5.835938 29.066406 3.886719 C 31.3125 2.570312 33.515625 2.527344 35.78125 3.820312 C 44.191406 8.625 52.605469 13.417969 61.023438 18.203125 C 61.972656 18.722656 62.761719 19.484375 63.308594 20.410156 Z M 63.308594 20.410156 "/>
<path style=" stroke:none;fill-rule:nonzero;fill:rgb(100%,100%,100%);fill-opacity:1;" d="M 33.710938 49.695312 C 29.480469 49.699219 25.585938 47.429688 23.542969 43.769531 C 23.4375 43.589844 23.34375 43.40625 23.25 43.21875 C 20.6875 37.988281 22.488281 31.691406 27.4375 28.558594 C 32.390625 25.425781 38.929688 26.449219 42.664062 30.9375 C 42.816406 31.121094 42.953125 31.3125 43.105469 31.507812 C 43.175781 31.605469 43.246094 31.699219 43.308594 31.796875 L 53.503906 25.996094 C 53.253906 25.601562 52.996094 25.21875 52.722656 24.847656 C 52.582031 24.648438 52.429688 24.460938 52.292969 24.273438 C 44.949219 14.847656 31.535156 12.53125 21.394531 18.9375 C 11.25 25.339844 7.742188 38.34375 13.3125 48.890625 C 13.410156 49.070312 13.515625 49.253906 13.601562 49.4375 C 17.617188 56.433594 25.050781 60.847656 33.191406 61.058594 C 41.332031 61.273438 48.988281 57.257812 53.371094 50.472656 L 43.410156 44.523438 C 41.265625 47.75 37.621094 49.695312 33.710938 49.695312 Z M 33.710938 49.695312 "/>
</g>
</svg>
