<?xml version="1.0" encoding="UTF-8"?>
<svg xmlns="http://www.w3.org/2000/svg" xmlns:xlink="http://www.w3.org/1999/xlink" width="65px" height="70px" viewBox="0 0 65 72" version="1.1">
<g id="surface1">
<path style=" stroke:none;fill-rule:nonzero;fill:rgb(36.078432%,55.29412%,73.725492%);fill-opacity:1;" d="M 64.890625 21.179688 C 64.890625 19.972656 64.628906 18.902344 64.097656 17.988281 C 63.578125 17.085938 62.796875 16.332031 61.75 15.734375 C 53.109375 10.832031 44.460938 5.941406 35.828125 1.03125 C 33.5 -0.289062 31.238281 -0.242188 28.929688 1.101562 C 25.492188 3.097656 8.277344 12.808594 3.144531 15.734375 C 1.03125 16.9375 0.00390625 18.78125 0.00390625 21.175781 C 0 31.039062 0.00390625 40.902344 0 50.765625 C 0 51.945312 0.25 52.992188 0.757812 53.894531 C 1.277344 54.820312 2.070312 55.59375 3.144531 56.207031 C 8.269531 59.132812 25.492188 68.84375 28.929688 70.839844 C 31.238281 72.183594 33.5 72.230469 35.828125 70.90625 C 44.464844 65.996094 53.113281 61.105469 61.75 56.203125 C 62.824219 55.59375 63.613281 54.816406 64.136719 53.890625 C 64.640625 52.988281 64.890625 51.941406 64.894531 50.761719 C 64.894531 50.761719 64.894531 31.042969 64.890625 21.179688 "/>
<path style=" stroke:none;fill-rule:nonzero;fill:rgb(10.196079%,27.450982%,45.490196%);fill-opacity:1;" d="M 32.546875 35.875 L 0.757812 53.894531 C 1.277344 54.820312 2.070312 55.59375 3.144531 56.207031 C 8.269531 59.132812 25.492188 68.84375 28.929688 70.839844 C 31.238281 72.183594 33.5 72.230469 35.828125 70.90625 C 44.464844 65.996094 53.113281 61.105469 61.75 56.203125 C 62.824219 55.59375 63.613281 54.816406 64.136719 53.890625 L 32.546875 35.875 "/>
<path style=" stroke:none;fill-rule:nonzero;fill:rgb(10.196079%,27.450982%,45.490196%);fill-opacity:1;" d="M 23.132812 41.210938 C 24.980469 44.390625 28.460938 46.535156 32.449219 46.535156 C 36.460938 46.535156 39.957031 44.363281 41.796875 41.148438 L 32.546875 35.875 L 23.132812 41.210938 "/>
<path style=" stroke:none;fill-rule:nonzero;fill:rgb(10.588235%,34.901962%,55.686277%);fill-opacity:1;" d="M 64.890625 21.179688 C 64.890625 19.972656 64.628906 18.902344 64.097656 17.988281 L 32.546875 35.875 L 64.136719 53.890625 C 64.640625 52.988281 64.890625 51.941406 64.894531 50.761719 C 64.894531 50.761719 64.894531 31.042969 64.890625 21.179688 "/>
<path style=" stroke:none;fill-rule:nonzero;fill:rgb(100%,100%,100%);fill-opacity:1;" d="M 63.152344 37.160156 L 60.6875 37.160156 L 60.6875 39.59375 L 58.214844 39.59375 L 58.214844 37.160156 L 55.746094 37.160156 L 55.746094 34.730469 L 58.214844 34.730469 L 58.214844 32.300781 L 60.6875 32.300781 L 60.6875 34.730469 L 63.152344 34.730469 L 63.152344 37.160156 M 54.148438 37.160156 L 51.675781 37.160156 L 51.675781 39.59375 L 49.210938 39.59375 L 49.210938 37.160156 L 46.742188 37.160156 L 46.742188 34.730469 L 49.210938 34.730469 L 49.210938 32.300781 L 51.675781 32.300781 L 51.675781 34.730469 L 54.148438 34.730469 L 54.148438 37.160156 "/>
<path style=" stroke:none;fill-rule:nonzero;fill:rgb(100%,100%,100%);fill-opacity:1;" d="M 41.796875 41.148438 C 39.957031 44.363281 36.460938 46.535156 32.449219 46.535156 C 28.460938 46.535156 24.980469 44.390625 23.132812 41.210938 C 22.203125 39.617188 21.714844 37.808594 21.714844 35.96875 C 21.714844 30.132812 26.519531 25.40625 32.449219 25.40625 C 36.410156 25.40625 39.867188 27.523438 41.726562 30.667969 L 51.105469 25.351562 C 47.378906 19.015625 40.417969 14.753906 32.449219 14.753906 C 20.542969 14.753906 10.894531 24.25 10.894531 35.96875 C 10.894531 39.816406 11.9375 43.417969 13.75 46.527344 C 17.46875 52.898438 24.449219 57.1875 32.449219 57.1875 C 40.460938 57.1875 47.449219 52.878906 51.164062 46.492188 L 41.796875 41.148438 "/>
</g>
</svg>
