<?xml version="1.0" encoding="UTF-8"?>
<svg xmlns="http://www.w3.org/2000/svg" xmlns:xlink="http://www.w3.org/1999/xlink" width="65px" height="70px" viewBox="0 0 65 72" version="1.1">
<g id="surface1">
<path style=" stroke:none;fill-rule:nonzero;fill:rgb(30.19608%,67.058825%,81.176472%);fill-opacity:1;" d="M 48.636719 48.347656 L 48.648438 63.453125 L 35.015625 70.140625 L 35.015625 55.042969 Z M 65 40.277344 L 65 55.433594 L 53.371094 61.136719 L 53.359375 46.050781 Z M 48.617188 28.132812 L 48.628906 43.078125 L 35.015625 49.730469 L 35.015625 34.777344 Z M 65 20.128906 L 65 34.980469 L 53.359375 40.796875 L 53.347656 25.820312 Z M 32.941406 18.371094 L 45.113281 24.410156 L 32.484375 30.640625 L 20.542969 24.746094 Z M 16.011719 9.972656 L 27.621094 15.730469 L 15.195312 22.105469 L 3.273438 16.222656 Z M 49.195312 10.0625 L 61.699219 16.222656 L 50.519531 21.742188 L 38.320312 15.695312 Z M 32.558594 1.859375 L 43.816406 7.40625 L 33.023438 13.070312 L 21.425781 7.320312 Z M 32.558594 1.859375 "/>
<path style=" stroke:none;fill-rule:nonzero;fill:rgb(30.19608%,46.666667%,81.176472%);fill-opacity:1;" d="M 30.199219 34.777344 L 21.015625 30.242188 L 21.015625 49.855469 C 21.015625 49.855469 9.78125 26.367188 8.742188 24.257812 C 8.609375 23.988281 8.054688 23.6875 7.917969 23.613281 C 5.902344 22.574219 0 19.636719 0 19.636719 L 0 54.292969 L 8.164062 58.582031 L 8.164062 40.46875 C 8.164062 40.46875 19.277344 61.457031 19.390625 61.6875 C 19.503906 61.914062 20.617188 64.128906 21.808594 64.902344 C 23.398438 65.933594 30.203125 69.957031 30.203125 69.957031 Z M 30.199219 34.777344 "/>
</g>
</svg>
