<?xml version="1.0" encoding="UTF-8"?>
<svg xmlns="http://www.w3.org/2000/svg" xmlns:xlink="http://www.w3.org/1999/xlink" width="65px" height="70px" viewBox="0 0 65 72" version="1.1">
<g id="surface1">
<path style=" stroke:none;fill-rule:evenodd;fill:rgb(4.705882%,1.568628%,32.941177%);fill-opacity:1;" d="M 47.496094 27.214844 L 47.496094 54.425781 L 51.496094 54.386719 L 55.496094 54.34375 L 55.574219 0 L 47.496094 0 Z M 22.320312 12.457031 L 22.320312 20.636719 L 30.402344 20.636719 L 30.402344 4.28125 L 22.320312 4.28125 Z M 9.425781 44.789062 L 9.425781 72 L 17.503906 72 L 17.503906 17.578125 L 9.425781 17.578125 Z M 34.90625 25.832031 L 34.90625 34.089844 L 42.988281 34.089844 L 42.910156 17.65625 L 38.910156 17.613281 L 34.90625 17.574219 Z M 22.320312 46.011719 L 22.320312 54.265625 L 30.402344 54.265625 L 30.402344 37.757812 L 22.320312 37.757812 Z M 34.90625 59.464844 L 34.90625 67.71875 L 42.988281 67.71875 L 42.988281 51.210938 L 34.90625 51.210938 Z M 34.90625 59.464844 "/>
<path style=" stroke:none;fill-rule:evenodd;fill:rgb(95.294118%,40.784314%,28.235295%);fill-opacity:1;" d="M 22.320312 29.273438 L 22.320312 33.171875 L 30.402344 33.171875 L 30.402344 25.375 L 22.320312 25.375 Z M 34.90625 42.726562 L 34.90625 46.625 L 42.988281 46.625 L 42.988281 38.828125 L 34.90625 38.828125 Z M 34.90625 42.726562 "/>
</g>
</svg>
