<?xml version="1.0" encoding="UTF-8"?>
<svg xmlns="http://www.w3.org/2000/svg" xmlns:xlink="http://www.w3.org/1999/xlink" width="65px" height="70px" viewBox="0 0 65 72" version="1.1">
<defs>
<linearGradient id="linear0" gradientUnits="userSpaceOnUse" x1="0.12959" y1="0.12039" x2="0.79639" y2="0.78201" gradientTransform="matrix(48.057746,0,0,47.283088,0.0359302,4.254202)">
<stop offset="0" style="stop-color:rgb(21.960784%,49.411765%,72.156863%);stop-opacity:1;"/>
<stop offset="1" style="stop-color:rgb(21.176471%,41.176471%,58.039216%);stop-opacity:1;"/>
</linearGradient>
<linearGradient id="linear1" gradientUnits="userSpaceOnUse" x1="0.19128" y1="0.20579" x2="0.90742" y2="0.88429" gradientTransform="matrix(48.055351,0,0,47.285452,16.817696,20.261817)">
<stop offset="0" style="stop-color:rgb(100%,87.843137%,32.156863%);stop-opacity:1;"/>
<stop offset="1" style="stop-color:rgb(100%,76.470588%,19.215686%);stop-opacity:1;"/>
</linearGradient>
</defs>
<g id="surface1">
<path style=" stroke:none;fill-rule:nonzero;fill:url(#linear0);" d="M 32.222656 4.253906 C 15.761719 4.253906 16.789062 11.257812 16.789062 11.257812 L 16.808594 18.515625 L 32.515625 18.515625 L 32.515625 20.695312 L 10.566406 20.695312 C 10.566406 20.695312 0.0351562 19.523438 0.0351562 35.816406 C 0.0351562 52.117188 9.230469 51.539062 9.230469 51.539062 L 14.71875 51.539062 L 14.71875 43.972656 C 14.71875 43.972656 14.421875 34.953125 23.761719 34.953125 L 39.339844 34.953125 C 39.339844 34.953125 48.09375 35.09375 48.09375 26.652344 L 48.09375 12.699219 C 48.09375 12.699219 49.421875 4.253906 32.222656 4.253906 Z M 23.5625 9.132812 C 24.308594 9.132812 25.027344 9.425781 25.5625 9.945312 C 26.089844 10.464844 26.386719 11.167969 26.386719 11.90625 C 26.386719 12.640625 26.089844 13.347656 25.5625 13.867188 C 25.027344 14.386719 24.308594 14.679688 23.5625 14.679688 C 22.8125 14.679688 22.09375 14.386719 21.5625 13.867188 C 21.03125 13.347656 20.734375 12.640625 20.734375 11.90625 C 20.734375 11.167969 21.03125 10.464844 21.5625 9.945312 C 22.09375 9.425781 22.8125 9.132812 23.5625 9.132812 Z M 23.5625 9.132812 "/>
<path style=" stroke:none;fill-rule:nonzero;fill:url(#linear1);" d="M 32.6875 67.546875 C 49.148438 67.546875 48.121094 60.542969 48.121094 60.542969 L 48.101562 53.285156 L 32.394531 53.285156 L 32.394531 51.105469 L 54.339844 51.105469 C 54.339844 51.105469 64.875 52.28125 64.875 35.980469 C 64.875 19.683594 55.679688 20.261719 55.679688 20.261719 L 50.195312 20.261719 L 50.195312 27.824219 C 50.195312 27.824219 50.488281 36.847656 41.148438 36.847656 L 25.570312 36.847656 C 25.570312 36.847656 16.816406 36.707031 16.816406 45.148438 L 16.816406 59.101562 C 16.816406 59.101562 15.488281 67.546875 32.6875 67.546875 Z M 41.351562 62.667969 C 40.601562 62.667969 39.882812 62.375 39.351562 61.855469 C 38.820312 61.335938 38.523438 60.628906 38.523438 59.894531 C 38.523438 59.160156 38.820312 58.453125 39.351562 57.933594 C 39.878906 57.414062 40.601562 57.121094 41.351562 57.121094 C 42.101562 57.121094 42.820312 57.414062 43.347656 57.933594 C 43.878906 58.453125 44.175781 59.160156 44.175781 59.894531 C 44.175781 60.628906 43.878906 61.335938 43.347656 61.855469 C 42.820312 62.375 42.101562 62.667969 41.351562 62.667969 Z M 41.351562 62.667969 "/>
</g>
</svg>
