<?xml version="1.0" encoding="UTF-8"?>
<svg xmlns="http://www.w3.org/2000/svg" xmlns:xlink="http://www.w3.org/1999/xlink" width="65px" height="70px" viewBox="0 0 65 72" version="1.1">
<g id="surface1">
<path style=" stroke:none;fill-rule:nonzero;fill:rgb(93.333334%,29.803923%,17.254902%);fill-opacity:1;" d="M 15.425781 31.578125 L 13.847656 33.136719 C 16.476562 35.730469 16.476562 39.957031 13.847656 42.550781 C 11.214844 45.148438 6.933594 45.148438 4.300781 42.550781 C 1.675781 39.957031 1.675781 35.730469 4.300781 33.136719 L 8.511719 28.984375 L 9.039062 28.390625 L 9.039062 25.277344 L 2.648438 31.578125 C 0.953125 33.234375 0 35.488281 0 37.84375 C 0 40.199219 0.953125 42.453125 2.648438 44.113281 C 4.324219 45.78125 6.613281 46.722656 9 46.722656 C 11.386719 46.722656 13.671875 45.78125 15.351562 44.113281 C 18.957031 40.625 18.957031 34.992188 15.425781 31.578125 Z M 15.425781 31.578125 "/>
<path style=" stroke:none;fill-rule:nonzero;fill:rgb(93.333334%,29.803923%,17.254902%);fill-opacity:1;" d="M 13.472656 29.945312 C 13.453125 30.585938 12.921875 31.101562 12.269531 31.101562 C 11.613281 31.101562 11.082031 30.585938 11.0625 29.945312 C 11.0625 29.289062 11.601562 28.757812 12.269531 28.757812 C 12.933594 28.757812 13.472656 29.289062 13.472656 29.945312 Z M 13.472656 29.945312 "/>
<path style=" stroke:none;fill-rule:nonzero;fill:rgb(14.509805%,14.509805%,14.509805%);fill-opacity:1;" d="M 25.09375 37.234375 L 23.859375 37.234375 L 23.859375 40.371094 L 22.933594 40.371094 L 22.933594 31.46875 L 25.1875 31.46875 C 27.578125 31.46875 28.707031 32.617188 28.707031 34.277344 C 28.707031 36.230469 27.308594 37.210938 25.085938 37.242188 Z M 25.152344 32.316406 L 23.828125 32.316406 L 23.828125 36.394531 L 25.125 36.359375 C 26.832031 36.324219 27.757812 35.648438 27.757812 34.269531 C 27.757812 33.023438 26.867188 32.316406 25.160156 32.316406 Z M 32.882812 40.335938 L 32.335938 41.753906 C 31.722656 43.335938 31.101562 43.808594 30.183594 43.808594 C 29.671875 43.808594 29.296875 43.675781 28.882812 43.503906 L 29.15625 42.699219 C 29.464844 42.867188 29.808594 42.96875 30.183594 42.96875 C 30.695312 42.96875 31.074219 42.699219 31.550781 41.445312 L 31.996094 40.300781 L 29.433594 33.855469 L 30.390625 33.855469 L 32.472656 39.253906 L 34.523438 33.855469 L 35.445312 33.855469 Z M 38.519531 32.347656 L 38.519531 40.40625 L 37.597656 40.40625 L 37.597656 32.347656 L 34.421875 32.347656 L 34.421875 31.46875 L 41.695312 31.46875 L 41.695312 32.316406 L 38.523438 32.316406 Z M 44.292969 40.574219 C 42.449219 40.574219 41.082031 39.222656 41.082031 37.132812 C 41.082031 35.046875 42.484375 33.660156 44.355469 33.660156 C 46.203125 33.660156 47.535156 35.007812 47.535156 37.101562 C 47.535156 39.191406 46.132812 40.574219 44.289062 40.574219 Z M 44.328125 34.476562 C 42.925781 34.476562 42.003906 35.589844 42.003906 37.109375 C 42.003906 38.691406 42.960938 39.773438 44.363281 39.773438 C 45.761719 39.773438 46.683594 38.660156 46.683594 37.140625 C 46.683594 35.554688 45.726562 34.480469 44.328125 34.480469 Z M 49.832031 40.40625 L 48.941406 40.40625 L 48.941406 33.863281 L 49.832031 33.695312 L 49.832031 35.078125 C 50.273438 34.234375 50.921875 33.695312 51.78125 33.695312 C 52.183594 33.699219 52.585938 33.800781 52.9375 34 L 52.699219 34.84375 C 52.429688 34.671875 52.054688 34.570312 51.675781 34.570312 C 50.988281 34.570312 50.34375 35.078125 49.796875 36.257812 L 49.796875 40.40625 Z M 56.457031 40.574219 C 54.476562 40.574219 53.210938 39.160156 53.210938 37.132812 C 53.210938 35.078125 54.578125 33.660156 56.457031 33.660156 C 57.277344 33.660156 57.964844 33.863281 58.542969 34.234375 L 58.304688 35.046875 C 57.757812 34.6875 57.113281 34.5 56.457031 34.503906 C 55.023438 34.503906 54.132812 35.546875 54.132812 37.101562 C 54.132812 38.683594 55.09375 39.730469 56.492188 39.730469 C 57.148438 39.726562 57.789062 39.539062 58.339844 39.191406 L 58.511719 40 C 57.929688 40.371094 57.210938 40.570312 56.457031 40.570312 Z M 64.078125 40.40625 L 64.078125 36.1875 C 64.078125 35.046875 63.601562 34.546875 62.675781 34.546875 C 61.925781 34.546875 61.175781 34.914062 60.625 35.488281 L 60.625 40.445312 L 59.734375 40.445312 L 59.734375 30.804688 L 60.625 30.636719 L 60.625 34.746094 C 61.308594 34.074219 62.199219 33.699219 62.917969 33.699219 C 64.214844 33.699219 65 34.511719 65 35.925781 L 65 40.410156 Z M 64.078125 40.40625 "/>
</g>
</svg>
