<?xml version="1.0" encoding="UTF-8"?>
<svg xmlns="http://www.w3.org/2000/svg" xmlns:xlink="http://www.w3.org/1999/xlink" width="65px" height="70px" viewBox="0 0 65 72" version="1.1">
<defs>
<linearGradient id="linear0" gradientUnits="userSpaceOnUse" x1="1.511" y1="1.192" x2="1.657" y2="1.192" gradientTransform="matrix(14.014389,-8.099762,-8.280825,-13.70796,18.44222,69.219323)">
<stop offset="0" style="stop-color:rgb(56.470588%,61.176471%,66.27451%);stop-opacity:1;"/>
<stop offset="1" style="stop-color:rgb(92.941176%,92.941176%,93.333333%);stop-opacity:1;"/>
</linearGradient>
<linearGradient id="linear1" gradientUnits="userSpaceOnUse" x1="0.981" y1="-9.224" x2="1.127" y2="-9.224" gradientTransform="matrix(11.276306,0,0,-11.029746,18.730963,-83.379325)">
<stop offset="0" style="stop-color:rgb(57.647059%,62.352941%,67.058824%);stop-opacity:1;"/>
<stop offset="1" style="stop-color:rgb(86.27451%,87.058824%,88.235294%);stop-opacity:1;"/>
</linearGradient>
<radialGradient id="radial0" gradientUnits="userSpaceOnUse" cx="1.935" cy="2.23" fx="1.935" fy="2.23" r="0.146" gradientTransform="matrix(-14.37701,-2.112361,-4.367695,28.125291,75.652441,-32.897392)">
<stop offset="0" style="stop-color:rgb(93.333333%,20.784314%,17.254902%);stop-opacity:1;"/>
<stop offset="1" style="stop-color:rgb(66.27451%,11.372549%,13.333333%);stop-opacity:1;"/>
</radialGradient>
</defs>
<g id="surface1">
<path style=" stroke:none;fill-rule:nonzero;fill:url(#linear0);" d="M 41.792969 28.640625 L 36.136719 30.453125 L 31.207031 32.582031 L 29.832031 32.9375 C 29.480469 33.269531 29.117188 33.597656 28.710938 33.925781 C 28.273438 34.296875 27.867188 34.625 27.558594 34.875 C 27.207031 35.148438 26.699219 35.644531 26.433594 35.960938 C 26.042969 36.441406 25.734375 36.949219 25.605469 37.332031 C 25.367188 38.03125 25.480469 38.746094 25.945312 39.40625 C 26.519531 40.242188 27.683594 41.09375 29.03125 41.671875 C 29.722656 41.972656 30.886719 42.34375 31.753906 42.5625 C 33.203125 42.921875 36.007812 43.320312 37.554688 43.375 C 37.863281 43.386719 38.285156 43.386719 38.300781 43.375 C 38.324219 43.347656 38.578125 42.910156 38.84375 42.34375 C 39.800781 40.449219 40.472656 38.664062 40.851562 37.152344 C 41.078125 36.234375 41.246094 35.011719 41.371094 33.554688 C 41.402344 33.144531 41.414062 31.785156 41.386719 31.328125 C 41.34375 30.574219 41.273438 29.972656 41.175781 29.367188 C 41.160156 29.285156 41.148438 29.203125 41.160156 29.203125 C 41.175781 29.1875 41.234375 29.175781 41.933594 28.984375 Z M 40.503906 29.378906 C 40.558594 29.378906 40.683594 30.671875 40.726562 31.480469 C 40.738281 31.648438 40.726562 31.769531 40.726562 31.769531 C 40.699219 31.769531 40.011719 31.371094 39.507812 31.070312 C 39.085938 30.808594 38.269531 30.273438 38.144531 30.175781 C 38.101562 30.152344 38.101562 30.152344 38.453125 30.027344 C 39.042969 29.820312 40.445312 29.378906 40.503906 29.378906 Z M 37.609375 30.316406 C 37.652344 30.316406 37.75 30.371094 37.988281 30.507812 C 38.875 31.042969 40.066406 31.699219 40.585938 31.921875 C 40.738281 31.988281 40.753906 31.964844 40.40625 32.210938 C 39.632812 32.730469 38.648438 33.238281 37.46875 33.746094 C 37.257812 33.84375 37.09375 33.914062 37.078125 33.914062 C 37.0625 33.914062 37.09375 33.800781 37.132812 33.679688 C 37.414062 32.632812 37.582031 31.578125 37.597656 30.742188 C 37.570312 30.316406 37.570312 30.316406 37.609375 30.316406 Z M 37.019531 30.535156 C 37.046875 30.5625 37.035156 31.496094 36.992188 31.757812 C 36.921875 32.359375 36.792969 32.9375 36.597656 33.582031 C 36.558594 33.734375 36.515625 33.871094 36.5 33.871094 C 36.488281 33.898438 35.898438 33.335938 35.699219 33.117188 C 35.363281 32.746094 35.109375 32.359375 34.914062 31.988281 C 34.816406 31.796875 34.664062 31.425781 34.675781 31.425781 C 34.746094 31.371094 37.003906 30.523438 37.019531 30.535156 Z M 34.226562 31.605469 C 34.253906 31.621094 34.28125 31.6875 34.296875 31.757812 C 34.4375 32.125 34.746094 32.664062 35.011719 32.992188 C 35.308594 33.363281 35.6875 33.777344 35.996094 34.035156 C 36.09375 34.117188 36.191406 34.203125 36.207031 34.214844 C 36.234375 34.242188 36.234375 34.242188 35.546875 34.488281 C 34.734375 34.792969 33.863281 35.09375 32.851562 35.410156 C 32.613281 35.492188 32.375 35.558594 32.136719 35.644531 C 32.09375 35.65625 32.105469 35.628906 32.21875 35.464844 C 32.726562 34.695312 33.480469 33.199219 33.902344 32.125 C 33.972656 31.949219 34.046875 31.757812 34.058594 31.714844 C 34.070312 31.660156 34.101562 31.632812 34.15625 31.605469 C 34.183594 31.621094 34.210938 31.605469 34.226562 31.605469 Z M 33.371094 31.949219 C 33.382812 31.964844 33.160156 32.402344 32.949219 32.8125 C 32.527344 33.609375 32.078125 34.378906 31.476562 35.328125 C 31.375 35.492188 31.277344 35.644531 31.265625 35.65625 C 31.238281 35.683594 31.238281 35.683594 31.164062 35.546875 C 31.027344 35.273438 30.898438 34.902344 30.84375 34.574219 C 30.773438 34.242188 30.789062 33.679688 30.871094 33.320312 C 30.929688 33.0625 30.929688 33.0625 31.054688 33.003906 C 31.574219 32.746094 33.34375 31.933594 33.371094 31.949219 Z M 40.738281 32.25 L 40.738281 32.429688 C 40.738281 33.363281 40.640625 34.640625 40.488281 35.574219 C 40.460938 35.738281 40.445312 35.878906 40.433594 35.878906 C 40.433594 35.878906 40.304688 35.847656 40.164062 35.808594 C 39.519531 35.613281 38.832031 35.328125 38.199219 34.984375 C 37.78125 34.765625 37.175781 34.394531 37.203125 34.378906 C 37.203125 34.378906 37.386719 34.285156 37.597656 34.171875 C 38.4375 33.746094 39.238281 33.28125 39.941406 32.828125 C 40.207031 32.664062 40.601562 32.375 40.683594 32.304688 Z M 30.140625 33.488281 C 30.15625 33.488281 30.15625 33.511719 30.125 33.664062 C 30.113281 33.777344 30.085938 33.980469 30.085938 34.117188 C 30.058594 34.722656 30.15625 35.175781 30.464844 35.792969 C 30.546875 35.960938 30.621094 36.109375 30.621094 36.109375 C 30.589844 36.136719 27.753906 36.949219 26.871094 37.183594 C 26.601562 37.25 26.378906 37.320312 26.351562 37.320312 C 26.324219 37.332031 26.324219 37.320312 26.324219 37.25 C 26.421875 36.632812 26.898438 35.835938 27.574219 35.148438 C 28.019531 34.695312 28.371094 34.433594 28.976562 34.089844 C 29.414062 33.871094 30.070312 33.5 30.140625 33.488281 C 30.125 33.488281 30.125 33.488281 30.140625 33.488281 Z M 36.808594 34.65625 C 36.808594 34.65625 36.921875 34.710938 37.035156 34.777344 C 37.945312 35.300781 39.222656 35.78125 40.304688 36.027344 L 40.40625 36.054688 L 40.261719 36.121094 C 39.6875 36.441406 37.820312 37.195312 35.910156 37.894531 C 35.628906 37.988281 35.363281 38.101562 35.308594 38.117188 C 35.253906 38.140625 35.210938 38.140625 35.210938 38.140625 C 35.210938 38.140625 35.277344 37.988281 35.378906 37.8125 C 35.910156 36.835938 36.445312 35.644531 36.726562 34.816406 C 36.78125 34.722656 36.808594 34.65625 36.808594 34.65625 Z M 36.136719 34.875 C 36.136719 34.875 36.105469 34.96875 36.066406 35.066406 C 35.6875 35.945312 35.210938 36.90625 34.578125 37.988281 C 34.421875 38.265625 34.28125 38.488281 34.28125 38.488281 C 34.28125 38.488281 34.15625 38.417969 34 38.320312 C 33.089844 37.773438 32.289062 37.113281 31.769531 36.453125 L 31.699219 36.355469 L 32.09375 36.25 C 33.480469 35.878906 34.675781 35.476562 35.855469 34.984375 C 35.984375 34.929688 36.121094 34.875 36.136719 34.875 Z M 40.363281 36.316406 C 40.363281 36.410156 40.152344 37.277344 39.96875 37.894531 C 39.816406 38.417969 39.6875 38.828125 39.449219 39.558594 C 39.351562 39.875 39.253906 40.132812 39.253906 40.132812 C 39.253906 40.132812 39.222656 40.132812 39.199219 40.121094 C 37.933594 39.898438 36.78125 39.582031 35.714844 39.15625 C 35.421875 39.035156 34.984375 38.855469 34.957031 38.828125 C 34.941406 38.816406 35.210938 38.707031 35.53125 38.570312 C 37.484375 37.730469 39.492188 36.796875 40.195312 36.386719 C 40.277344 36.34375 40.347656 36.316406 40.363281 36.316406 Z M 30.605469 36.644531 C 30.621094 36.660156 30.070312 37.414062 29.3125 38.457031 C 29.046875 38.828125 28.738281 39.253906 28.625 39.40625 C 28.511719 39.570312 28.328125 39.816406 28.230469 39.96875 L 28.050781 40.242188 L 27.851562 40.078125 C 27.628906 39.898438 27.234375 39.503906 27.054688 39.28125 C 26.6875 38.828125 26.433594 38.359375 26.335938 37.9375 C 26.292969 37.730469 26.292969 37.632812 26.335938 37.621094 C 26.40625 37.605469 27.542969 37.34375 28.609375 37.097656 C 29.203125 36.960938 29.890625 36.8125 30.140625 36.742188 C 30.394531 36.6875 30.589844 36.644531 30.605469 36.644531 Z M 31.152344 36.851562 L 31.292969 37.003906 C 31.910156 37.675781 32.542969 38.167969 33.300781 38.609375 C 33.441406 38.679688 33.539062 38.746094 33.523438 38.761719 C 33.496094 38.785156 30.886719 39.695312 29.664062 40.089844 C 28.992188 40.324219 28.429688 40.519531 28.414062 40.519531 L 28.328125 40.460938 L 28.261719 40.40625 L 28.386719 40.230469 C 28.792969 39.664062 29.300781 39.035156 30.394531 37.746094 Z M 34.566406 39.242188 C 34.566406 39.242188 34.761719 39.308594 34.984375 39.390625 C 35.546875 39.597656 35.984375 39.722656 36.570312 39.875 C 37.300781 40.050781 38.355469 40.230469 38.972656 40.285156 C 39.070312 40.300781 39.113281 40.300781 39.097656 40.3125 C 39.070312 40.324219 38.4375 40.53125 37.976562 40.683594 C 37.246094 40.902344 35 41.5625 33.160156 42.070312 C 32.824219 42.167969 32.527344 42.25 32.515625 42.25 C 32.472656 42.261719 32.332031 42.21875 32.332031 42.207031 C 32.332031 42.191406 32.429688 42.070312 32.554688 41.933594 C 33.171875 41.21875 33.777344 40.40625 34.296875 39.652344 C 34.4375 39.40625 34.566406 39.242188 34.566406 39.242188 Z M 33.804688 39.253906 C 33.804688 39.253906 33.511719 39.734375 32.976562 40.558594 C 32.75 40.902344 32.5 41.300781 32.402344 41.4375 C 32.316406 41.574219 32.191406 41.78125 32.121094 41.902344 L 31.996094 42.125 L 31.925781 42.113281 C 31.769531 42.070312 30.6875 41.699219 30.410156 41.589844 C 30.058594 41.453125 29.691406 41.285156 29.414062 41.136719 C 29.074219 40.957031 28.640625 40.683594 28.683594 40.683594 C 28.695312 40.683594 29.269531 40.519531 29.988281 40.339844 C 31.851562 39.84375 32.894531 39.558594 33.582031 39.335938 C 33.691406 39.28125 33.804688 39.253906 33.804688 39.253906 Z M 39.125 40.476562 C 39.152344 40.519531 38.453125 42.398438 38.199219 42.988281 C 38.144531 43.128906 38.128906 43.152344 38.089844 43.152344 C 38.015625 43.152344 37.003906 43.015625 36.402344 42.921875 C 35.335938 42.757812 33.554688 42.453125 33.105469 42.359375 L 33.003906 42.332031 L 33.636719 42.191406 C 35.011719 41.890625 35.660156 41.726562 36.332031 41.535156 C 37.175781 41.285156 38.003906 40.96875 38.84375 40.585938 C 38.988281 40.53125 39.097656 40.476562 39.125 40.476562 Z M 39.125 40.476562 "/>
<path style=" stroke:none;fill-rule:nonzero;fill:url(#linear1);" d="M 35.953125 15.746094 C 35.855469 15.730469 34.339844 16.269531 33.359375 16.652344 C 32.039062 17.171875 31.011719 17.679688 30.378906 18.121094 C 30.140625 18.285156 29.847656 18.574219 29.804688 18.683594 C 29.789062 18.726562 29.777344 18.78125 29.777344 18.820312 L 30.351562 19.355469 L 31.714844 19.78125 L 34.957031 20.34375 L 38.664062 20.964844 L 38.707031 20.648438 L 38.675781 20.648438 L 38.1875 20.578125 L 38.089844 20.414062 C 37.582031 19.546875 37.019531 18.464844 36.695312 17.734375 C 36.445312 17.171875 36.207031 16.511719 36.082031 16.046875 C 36.007812 15.757812 35.996094 15.746094 35.953125 15.746094 Z M 35.882812 15.949219 C 35.898438 15.949219 35.910156 16.074219 35.925781 16.210938 C 35.996094 16.800781 36.136719 17.363281 36.347656 17.96875 C 36.5 18.4375 36.5 18.410156 36.316406 18.355469 C 35.882812 18.230469 33.933594 17.902344 32.515625 17.710938 C 32.289062 17.679688 32.09375 17.652344 32.09375 17.640625 C 32.078125 17.625 33.117188 17.089844 33.566406 16.882812 C 34.15625 16.625 35.773438 15.980469 35.882812 15.949219 Z M 31.753906 17.832031 L 31.925781 17.886719 C 32.835938 18.1875 35.109375 18.613281 36.375 18.710938 C 36.515625 18.726562 36.640625 18.738281 36.640625 18.738281 C 36.640625 18.738281 36.527344 18.808594 36.375 18.875 C 35.773438 19.175781 35.097656 19.535156 34.632812 19.820312 C 34.492188 19.90625 34.367188 19.972656 34.355469 19.972656 C 34.339844 19.972656 34.242188 19.960938 34.15625 19.949219 L 33.988281 19.917969 L 33.566406 19.507812 C 32.808594 18.792969 32.21875 18.242188 31.996094 18.023438 Z M 31.585938 17.957031 L 32.191406 18.695312 C 32.515625 19.109375 32.851562 19.492188 32.921875 19.589844 C 32.992188 19.671875 33.046875 19.753906 33.046875 19.753906 C 33.035156 19.769531 32.175781 19.605469 31.730469 19.507812 C 31.265625 19.398438 31.066406 19.355469 30.789062 19.257812 L 30.546875 19.191406 L 30.546875 19.136719 C 30.546875 18.863281 30.914062 18.4375 31.53125 18.011719 Z M 36.710938 18.957031 C 36.726562 18.957031 36.753906 19 36.792969 19.109375 C 36.9375 19.425781 37.402344 20.261719 37.511719 20.425781 C 37.539062 20.480469 37.609375 20.480469 37.003906 20.386719 C 35.5625 20.152344 35.097656 20.085938 35.097656 20.070312 C 35.097656 20.070312 35.140625 20.042969 35.195312 20 C 35.644531 19.753906 36.09375 19.453125 36.5 19.121094 C 36.597656 19.039062 36.683594 18.972656 36.710938 18.957031 C 36.695312 18.957031 36.710938 18.957031 36.710938 18.957031 Z M 36.710938 18.957031 "/>
<path style=" stroke:none;fill-rule:nonzero;fill:url(#radial0);" d="M 29.832031 18.613281 C 29.832031 18.613281 29.734375 18.765625 29.832031 18.984375 C 29.890625 19.121094 30.058594 19.289062 30.238281 19.453125 C 30.238281 19.453125 32.148438 21.265625 32.375 21.527344 C 33.425781 22.71875 33.890625 23.886719 33.933594 25.496094 C 33.960938 26.539062 33.761719 27.445312 33.257812 28.503906 C 32.375 30.394531 30.492188 32.496094 27.597656 34.816406 L 28.019531 34.679688 C 28.289062 34.476562 28.667969 34.269531 29.535156 33.800781 C 31.558594 32.71875 33.820312 31.730469 36.597656 30.714844 C 40.601562 29.242188 47.1875 27.511719 50.933594 26.949219 L 51.328125 26.894531 L 51.269531 26.800781 C 50.933594 26.277344 50.695312 25.960938 50.414062 25.617188 C 49.601562 24.617188 48.605469 23.820312 47.382812 23.148438 C 45.710938 22.226562 43.535156 21.511719 40.78125 20.976562 C 40.261719 20.882812 39.125 20.691406 38.199219 20.550781 C 36.234375 20.25 34.972656 20.042969 33.582031 19.808594 C 33.074219 19.726562 32.332031 19.605469 31.839844 19.492188 C 31.585938 19.4375 31.097656 19.328125 30.703125 19.191406 C 30.367188 19.097656 29.929688 18.972656 29.832031 18.613281 Z M 30.941406 19.671875 C 30.941406 19.671875 31.011719 19.699219 31.109375 19.726562 C 31.277344 19.78125 31.488281 19.851562 31.730469 19.90625 C 31.910156 19.960938 32.105469 20 32.289062 20.054688 C 32.542969 20.125 32.765625 20.179688 32.765625 20.179688 C 32.792969 20.207031 33.230469 21.566406 33.371094 22.074219 C 33.425781 22.269531 33.46875 22.445312 33.46875 22.445312 C 33.46875 22.445312 33.414062 22.378906 33.359375 22.28125 C 32.851562 21.414062 32.0625 20.550781 31.152344 19.835938 C 31.027344 19.742188 30.941406 19.671875 30.941406 19.671875 Z M 33.046875 20.234375 C 33.074219 20.234375 33.160156 20.25 33.269531 20.277344 C 34 20.441406 35.308594 20.675781 36.136719 20.8125 C 36.277344 20.839844 36.390625 20.851562 36.390625 20.867188 C 36.390625 20.882812 36.332031 20.90625 36.277344 20.933594 C 36.136719 21.003906 35.5625 21.335938 35.378906 21.457031 C 34.898438 21.773438 34.480469 22.101562 34.167969 22.40625 L 33.945312 22.625 C 33.945312 22.625 33.917969 22.558594 33.902344 22.460938 C 33.75 21.882812 33.425781 21.019531 33.132812 20.414062 C 33.074219 20.332031 33.035156 20.234375 33.046875 20.234375 C 33.035156 20.234375 33.035156 20.234375 33.046875 20.234375 Z M 36.738281 20.921875 C 36.769531 20.933594 36.808594 21.074219 36.894531 21.390625 C 37.046875 21.992188 37.117188 22.679688 37.105469 23.3125 C 37.09375 23.492188 37.09375 23.65625 37.078125 23.667969 L 37.0625 23.710938 L 36.839844 23.640625 C 36.375 23.503906 35.628906 23.285156 35 23.105469 C 34.632812 23.007812 34.339844 22.929688 34.339844 22.914062 C 34.339844 22.886719 34.875 22.363281 35.097656 22.171875 C 35.53125 21.800781 36.710938 20.90625 36.738281 20.921875 Z M 37.035156 20.964844 C 37.046875 20.949219 38.804688 21.253906 39.605469 21.402344 C 40.195312 21.511719 41.0625 21.691406 41.121094 21.71875 C 41.148438 21.730469 41.050781 21.773438 40.769531 21.898438 C 39.644531 22.390625 38.804688 22.84375 37.960938 23.378906 C 37.734375 23.515625 37.554688 23.640625 37.554688 23.640625 C 37.554688 23.640625 37.539062 23.515625 37.539062 23.378906 C 37.539062 22.582031 37.371094 21.785156 37.078125 21.101562 C 37.0625 21.03125 37.035156 20.976562 37.035156 20.964844 Z M 41.582031 21.84375 C 41.597656 21.855469 41.542969 22.199219 41.484375 22.390625 C 41.332031 23.007812 40.910156 23.945312 40.40625 24.808594 C 40.320312 24.960938 40.234375 25.082031 40.222656 25.097656 C 40.207031 25.097656 40.09375 25.039062 39.96875 24.960938 C 39.476562 24.671875 38.902344 24.410156 38.300781 24.164062 C 38.128906 24.09375 37.976562 24.039062 37.976562 24.023438 C 37.945312 24 39.320312 23.105469 40.050781 22.679688 C 40.628906 22.335938 41.570312 21.828125 41.582031 21.84375 Z M 41.90625 21.898438 C 41.949219 21.898438 42.722656 22.101562 43.128906 22.226562 C 44.140625 22.515625 45.289062 22.929688 46.035156 23.269531 L 46.34375 23.40625 L 46.117188 23.460938 C 44.277344 23.875 42.707031 24.355469 41.191406 24.960938 C 41.0625 25.015625 40.949219 25.054688 40.949219 25.054688 C 40.9375 25.054688 40.980469 24.960938 41.035156 24.835938 C 41.5 23.886719 41.792969 22.898438 41.863281 22.046875 C 41.890625 21.964844 41.90625 21.898438 41.90625 21.898438 Z M 34.15625 23.640625 C 34.167969 23.628906 34.761719 23.765625 35.082031 23.863281 C 35.574219 24 36.597656 24.328125 36.597656 24.355469 C 36.597656 24.355469 36.488281 24.453125 36.347656 24.574219 C 35.785156 25.027344 35.253906 25.507812 34.605469 26.125 C 34.410156 26.304688 34.253906 26.457031 34.242188 26.457031 C 34.226562 26.457031 34.226562 26.429688 34.226562 26.402344 C 34.324219 25.699219 34.296875 24.792969 34.167969 23.875 C 34.167969 23.734375 34.15625 23.640625 34.15625 23.640625 Z M 46.652344 23.65625 C 46.667969 23.667969 46.371094 24.09375 46.203125 24.339844 C 45.949219 24.699219 45.570312 25.179688 44.714844 26.222656 C 44.265625 26.769531 43.761719 27.402344 43.589844 27.609375 C 43.421875 27.816406 43.28125 27.996094 43.265625 27.996094 C 43.265625 27.996094 43.210938 27.925781 43.140625 27.828125 C 42.664062 27.128906 42.089844 26.511719 41.414062 25.960938 C 41.289062 25.851562 41.148438 25.742188 41.09375 25.714844 C 41.050781 25.6875 41.007812 25.644531 41.007812 25.644531 C 41.007812 25.632812 41.738281 25.328125 42.285156 25.109375 C 43.253906 24.726562 44.574219 24.257812 45.558594 23.96875 C 46.089844 23.792969 46.652344 23.640625 46.652344 23.65625 Z M 46.988281 23.734375 C 47 23.734375 47.113281 23.777344 47.226562 23.863281 C 48.265625 24.4375 49.292969 25.191406 50.089844 25.960938 C 50.316406 26.183594 50.878906 26.746094 50.863281 26.757812 C 50.863281 26.757812 50.667969 26.769531 50.441406 26.785156 C 48.644531 26.921875 46.34375 27.292969 44.125 27.816406 C 43.972656 27.84375 43.84375 27.882812 43.828125 27.882812 C 43.816406 27.882812 43.984375 27.71875 44.195312 27.527344 C 45.5 26.304688 46.089844 25.523438 46.792969 24.148438 C 46.890625 23.914062 46.976562 23.75 46.988281 23.734375 C 46.976562 23.734375 46.976562 23.734375 46.988281 23.734375 Z M 37.457031 24.683594 C 37.511719 24.699219 38.074219 24.960938 38.496094 25.152344 C 38.875 25.34375 39.464844 25.644531 39.492188 25.660156 C 39.492188 25.660156 39.296875 25.769531 39.042969 25.894531 C 38.242188 26.289062 37.554688 26.660156 36.824219 27.085938 C 36.613281 27.210938 36.445312 27.308594 36.445312 27.308594 C 36.429688 27.308594 36.429688 27.292969 36.542969 27.085938 C 36.921875 26.402344 37.230469 25.578125 37.414062 24.78125 C 37.425781 24.726562 37.441406 24.683594 37.457031 24.683594 Z M 36.90625 24.792969 C 36.921875 24.808594 36.78125 25.316406 36.683594 25.605469 C 36.515625 26.140625 36.207031 26.800781 35.925781 27.308594 C 35.855469 27.429688 35.757812 27.59375 35.699219 27.691406 L 35.585938 27.855469 L 35.351562 27.636719 C 35.070312 27.375 34.84375 27.210938 34.550781 27.058594 C 34.4375 27.003906 34.339844 26.949219 34.339844 26.9375 C 34.339844 26.910156 35.070312 26.25 35.628906 25.78125 C 36.039062 25.441406 36.894531 24.78125 36.90625 24.792969 Z M 40.304688 26.152344 L 40.515625 26.289062 C 40.992188 26.59375 41.554688 27.003906 41.992188 27.363281 C 42.230469 27.554688 42.707031 27.964844 42.804688 28.074219 L 42.859375 28.132812 L 42.511719 28.226562 C 40.542969 28.761719 39.042969 29.230469 37.273438 29.863281 C 37.078125 29.929688 36.90625 29.984375 36.894531 29.984375 C 36.867188 29.984375 36.851562 30.011719 37.289062 29.613281 C 38.410156 28.597656 39.421875 27.472656 40.164062 26.386719 Z M 39.40625 26.375 C 39.421875 26.386719 38.832031 27.183594 38.480469 27.648438 C 38.058594 28.199219 37.316406 29.105469 36.808594 29.695312 C 36.597656 29.945312 36.417969 30.152344 36.402344 30.152344 C 36.390625 30.152344 36.390625 30.097656 36.390625 30 C 36.390625 29.492188 36.261719 28.953125 36.023438 28.488281 C 35.925781 28.296875 35.910156 28.253906 35.925781 28.226562 C 36.007812 28.15625 37.246094 27.457031 38.046875 27.046875 C 38.566406 26.769531 39.394531 26.359375 39.40625 26.375 Z M 34 27.664062 C 34.015625 27.664062 34.113281 27.71875 34.226562 27.773438 C 34.492188 27.925781 34.746094 28.089844 34.957031 28.253906 C 34.972656 28.269531 34.859375 28.351562 34.703125 28.460938 C 34.296875 28.75 33.679688 29.203125 33.328125 29.476562 C 32.949219 29.765625 32.9375 29.78125 32.976562 29.710938 C 33.257812 29.285156 33.398438 29.050781 33.554688 28.75 C 33.679688 28.476562 33.820312 28.15625 33.917969 27.871094 C 33.945312 27.761719 33.988281 27.664062 34 27.664062 Z M 35.449219 28.777344 C 35.476562 28.777344 35.488281 28.804688 35.617188 28.984375 C 35.855469 29.339844 36.050781 29.820312 36.09375 30.203125 L 36.105469 30.289062 L 35.519531 30.507812 C 34.464844 30.90625 33.496094 31.304688 32.851562 31.59375 C 32.667969 31.675781 32.347656 31.824219 32.136719 31.921875 C 31.925781 32.03125 31.753906 32.101562 31.753906 32.101562 C 31.753906 32.101562 31.882812 32.003906 32.050781 31.878906 C 33.328125 30.972656 34.4375 29.972656 35.265625 28.984375 C 35.351562 28.871094 35.433594 28.777344 35.449219 28.777344 Z M 34.789062 28.929688 C 34.800781 28.941406 34.3125 29.492188 33.988281 29.820312 C 33.160156 30.644531 32.347656 31.289062 31.335938 31.921875 C 31.207031 32.003906 31.097656 32.070312 31.082031 32.085938 C 31.054688 32.101562 31.097656 32.058594 31.53125 31.59375 C 31.8125 31.289062 32.023438 31.042969 32.273438 30.742188 C 32.445312 30.535156 32.472656 30.507812 32.695312 30.34375 C 33.3125 29.875 34.761719 28.914062 34.789062 28.929688 Z M 34.789062 28.929688 "/>
<path style=" stroke:none;fill-rule:nonzero;fill:rgb(13.725491%,12.156863%,12.156863%);fill-opacity:1;" d="M 16.257812 46.257812 C 16.171875 46.257812 16.101562 46.273438 16.019531 46.273438 C 14.417969 46.355469 13.347656 47.039062 12.71875 48.386719 C 12.183594 49.59375 12.238281 51.1875 12.71875 52.394531 C 13.28125 53.589844 14.191406 54.222656 15.707031 54.457031 C 16.03125 54.511719 16.242188 54.675781 16.875 55.390625 L 17.648438 56.269531 L 19.035156 56.269531 L 18.109375 55.363281 C 17.601562 54.867188 17.183594 54.429688 17.183594 54.386719 C 17.183594 54.347656 17.378906 54.265625 17.617188 54.195312 C 18.402344 53.960938 19.050781 53.371094 19.5 52.464844 C 19.863281 51.738281 19.917969 51.519531 19.976562 50.609375 C 20.117188 47.917969 18.671875 46.242188 16.257812 46.257812 Z M 17.480469 53.289062 C 16.804688 53.605469 15.820312 53.675781 15.175781 53.441406 C 14.515625 53.207031 13.867188 52.535156 13.574219 51.765625 C 13.25 50.925781 13.292969 49.390625 13.671875 48.703125 C 14.261719 47.605469 15.050781 47.097656 16.183594 47.097656 C 17.871094 47.097656 18.839844 48.113281 18.964844 50.007812 C 19.066406 51.597656 18.515625 52.792969 17.480469 53.289062 Z M 41.5 48.550781 C 40.910156 48.550781 40.472656 48.785156 40.164062 49.238281 L 39.929688 49.59375 L 39.929688 48.660156 L 38.917969 48.660156 L 38.917969 54.277344 L 39.929688 54.277344 L 39.929688 52.476562 C 39.929688 50.832031 39.941406 50.640625 40.179688 50.199219 C 40.503906 49.582031 41.0625 49.28125 41.597656 49.417969 L 41.960938 49.511719 L 41.960938 48.539062 Z M 35.574219 48.496094 C 35.378906 48.496094 35.167969 48.523438 34.957031 48.5625 C 33.609375 48.910156 32.851562 50.171875 32.894531 51.476562 C 32.894531 52.5625 33.105469 53.113281 33.652344 53.6875 C 34.746094 54.566406 35.742188 54.636719 37.09375 54.167969 C 37.316406 54.070312 37.570312 53.960938 37.570312 53.960938 L 37.570312 53.082031 L 37.09375 53.332031 C 36.007812 53.796875 35.179688 53.796875 34.523438 53.25 C 34.101562 52.835938 33.917969 52.328125 33.835938 51.765625 L 37.90625 51.765625 L 37.90625 51.011719 C 37.90625 49.457031 36.949219 48.484375 35.574219 48.496094 Z M 33.933594 50.96875 C 33.933594 50.96875 34.085938 50.007812 34.632812 49.621094 C 34.898438 49.441406 35.210938 49.347656 35.519531 49.347656 C 35.828125 49.347656 36.121094 49.441406 36.375 49.636719 C 36.882812 50.019531 36.980469 50.96875 36.980469 50.96875 Z M 9.589844 49.953125 C 8.492188 49.304688 8 48.839844 8.074219 48.289062 C 8.238281 46.765625 10.164062 46.972656 11.230469 47.546875 L 11.242188 46.519531 C 11.242188 46.519531 10.65625 46.273438 9.8125 46.257812 C 8.519531 46.242188 7.679688 46.65625 7.285156 47.507812 C 6.710938 48.757812 7.214844 49.707031 9.070312 50.746094 C 10.109375 51.339844 10.570312 51.847656 10.570312 52.410156 C 10.570312 53.5625 9.152344 53.960938 7.679688 53.25 C 7.371094 53.097656 7.117188 52.972656 7.101562 52.972656 C 7.046875 53.304688 7.074219 54.085938 7.074219 54.085938 C 7.074219 54.085938 7.523438 54.265625 8.195312 54.402344 C 9.882812 54.730469 11.398438 53.960938 11.554688 52.710938 C 11.664062 51.53125 11.230469 50.914062 9.589844 49.953125 Z M 50.441406 48.496094 C 50.246094 48.496094 50.035156 48.523438 49.824219 48.5625 C 48.476562 48.910156 47.71875 50.171875 47.761719 51.476562 C 47.761719 52.5625 47.972656 53.113281 48.519531 53.675781 C 49.613281 54.554688 50.609375 54.636719 51.972656 54.152344 C 52.195312 54.058594 52.449219 53.949219 52.449219 53.949219 L 52.449219 53.070312 L 51.972656 53.316406 C 50.878906 53.78125 50.0625 53.78125 49.402344 53.234375 C 48.980469 52.824219 48.800781 52.328125 48.714844 51.75 L 52.773438 51.75 L 52.773438 50.996094 C 52.773438 49.441406 51.820312 48.46875 50.441406 48.496094 Z M 48.785156 50.953125 C 48.785156 50.953125 48.9375 49.992188 49.488281 49.609375 C 49.753906 49.417969 50.0625 49.335938 50.355469 49.335938 C 50.652344 49.335938 50.960938 49.429688 51.214844 49.621094 C 51.71875 50.007812 51.820312 50.953125 51.820312 50.953125 Z M 30.28125 49.964844 C 29.1875 49.320312 28.710938 48.851562 28.765625 48.304688 C 28.933594 46.78125 30.855469 46.984375 31.925781 47.5625 L 31.941406 46.53125 C 31.941406 46.53125 31.347656 46.285156 30.507812 46.273438 C 29.214844 46.257812 28.371094 46.671875 27.980469 47.523438 C 27.402344 48.773438 27.921875 49.71875 29.761719 50.761719 C 30.800781 51.351562 31.25 51.859375 31.25 52.410156 C 31.25 53.5625 29.832031 53.976562 28.359375 53.25 C 28.0625 53.097656 27.796875 52.972656 27.785156 52.972656 C 27.726562 53.304688 27.753906 54.085938 27.753906 54.085938 C 27.753906 54.085938 28.207031 54.265625 28.878906 54.402344 C 30.5625 54.730469 32.078125 53.960938 32.234375 52.710938 C 32.359375 51.542969 31.925781 50.925781 30.28125 49.964844 Z M 56.367188 48.539062 C 55.777344 48.539062 55.328125 48.773438 55.03125 49.222656 L 54.792969 49.582031 L 54.792969 48.648438 L 53.78125 48.648438 L 53.78125 54.265625 L 54.792969 54.265625 L 54.792969 52.476562 C 54.792969 50.832031 54.808594 50.640625 55.046875 50.199219 C 55.371094 49.582031 55.929688 49.28125 56.464844 49.429688 L 56.828125 49.527344 L 56.828125 48.550781 Z M 22.25 49.9375 L 22.25 46.355469 L 21.238281 46.355469 L 21.238281 54.277344 L 25.523438 54.277344 L 25.523438 53.34375 L 22.265625 53.34375 Z M 45.792969 51.050781 L 44.953125 53.179688 L 44.152344 51.035156 L 43.339844 48.660156 L 42.300781 48.660156 C 42.972656 50.527344 43.703125 52.4375 44.449219 54.277344 C 44.769531 54.289062 45.09375 54.277344 45.414062 54.277344 L 46.554688 51.488281 L 47.707031 48.648438 L 46.707031 48.648438 C 46.695312 48.660156 46.257812 49.789062 45.792969 51.050781 Z M 24.609375 44.199219 C 24.777344 44.199219 24.90625 44.144531 25.015625 44.035156 C 25.128906 43.925781 25.183594 43.800781 25.183594 43.636719 C 25.183594 43.472656 25.128906 43.347656 25.015625 43.238281 C 24.90625 43.140625 24.777344 43.085938 24.609375 43.085938 C 24.441406 43.085938 24.300781 43.140625 24.203125 43.25 C 24.089844 43.359375 24.035156 43.496094 24.035156 43.648438 C 24.035156 43.8125 24.089844 43.949219 24.203125 44.046875 C 24.300781 44.144531 24.441406 44.199219 24.609375 44.199219 Z M 24.246094 43.277344 C 24.34375 43.183594 24.457031 43.140625 24.609375 43.140625 C 24.75 43.140625 24.875 43.183594 24.972656 43.277344 C 25.070312 43.375 25.128906 43.484375 25.128906 43.636719 C 25.128906 43.773438 25.070312 43.894531 24.972656 43.992188 C 24.875 44.085938 24.75 44.128906 24.609375 44.128906 C 24.46875 44.128906 24.34375 44.085938 24.246094 43.992188 C 24.148438 43.894531 24.089844 43.773438 24.089844 43.636719 C 24.105469 43.496094 24.148438 43.375 24.246094 43.277344 Z M 24.484375 43.691406 L 24.554688 43.691406 C 24.59375 43.691406 24.652344 43.730469 24.679688 43.8125 L 24.765625 43.992188 L 24.890625 43.992188 L 24.792969 43.800781 C 24.75 43.714844 24.707031 43.675781 24.667969 43.664062 C 24.722656 43.648438 24.765625 43.636719 24.804688 43.59375 C 24.835938 43.566406 24.847656 43.511719 24.847656 43.472656 C 24.847656 43.417969 24.835938 43.375 24.792969 43.332031 C 24.75 43.292969 24.679688 43.277344 24.582031 43.277344 L 24.371094 43.277344 L 24.371094 43.992188 L 24.46875 43.992188 Z M 24.484375 43.359375 L 24.582031 43.359375 C 24.652344 43.359375 24.695312 43.375 24.722656 43.386719 C 24.75 43.402344 24.75 43.429688 24.75 43.484375 C 24.75 43.566406 24.695312 43.609375 24.59375 43.609375 L 24.484375 43.609375 Z M 7.679688 43.621094 C 7.679688 43.375 7.664062 43.183594 7.664062 43.070312 C 7.691406 43.195312 7.71875 43.292969 7.75 43.359375 L 8.730469 45.488281 L 8.902344 45.488281 L 9.882812 43.332031 C 9.910156 43.277344 9.9375 43.183594 9.96875 43.058594 L 9.980469 43.058594 C 9.96875 43.277344 9.953125 43.457031 9.953125 43.609375 L 9.953125 45.488281 L 10.289062 45.488281 L 10.289062 42.6875 L 9.867188 42.6875 L 8.957031 44.648438 C 8.925781 44.734375 8.871094 44.84375 8.816406 44.996094 L 8.800781 44.996094 C 8.789062 44.914062 8.730469 44.800781 8.675781 44.664062 L 7.789062 42.699219 L 7.339844 42.699219 L 7.339844 45.503906 L 7.664062 45.503906 Z M 11.007812 43.636719 L 11.300781 43.636719 L 11.300781 45.378906 L 11.007812 45.378906 Z M 11.144531 42.988281 C 11.203125 42.988281 11.257812 42.976562 11.300781 42.933594 C 11.34375 42.894531 11.371094 42.851562 11.371094 42.78125 C 11.371094 42.730469 11.355469 42.675781 11.300781 42.632812 C 11.257812 42.589844 11.203125 42.578125 11.144531 42.578125 C 11.089844 42.578125 11.03125 42.589844 10.992188 42.632812 C 10.949219 42.675781 10.921875 42.730469 10.921875 42.78125 C 10.921875 42.851562 10.933594 42.894531 10.992188 42.933594 C 11.03125 42.976562 11.089844 42.988281 11.144531 42.988281 Z M 13.347656 45.40625 L 13.347656 45.105469 C 13.195312 45.214844 13.027344 45.285156 12.84375 45.285156 C 12.636719 45.285156 12.464844 45.214844 12.339844 45.078125 C 12.214844 44.941406 12.140625 44.761719 12.140625 44.527344 C 12.140625 44.28125 12.214844 44.085938 12.339844 43.949219 C 12.464844 43.8125 12.648438 43.746094 12.84375 43.746094 C 13.015625 43.746094 13.179688 43.800781 13.335938 43.894531 L 13.335938 43.554688 C 13.195312 43.484375 13.042969 43.457031 12.859375 43.457031 C 12.539062 43.457031 12.269531 43.554688 12.085938 43.757812 C 11.90625 43.949219 11.804688 44.226562 11.804688 44.554688 C 11.804688 44.84375 11.890625 45.089844 12.074219 45.269531 C 12.253906 45.460938 12.492188 45.558594 12.773438 45.558594 C 13.015625 45.542969 13.195312 45.503906 13.347656 45.40625 Z M 14.179688 44.488281 C 14.179688 44.253906 14.234375 44.074219 14.332031 43.9375 C 14.433594 43.828125 14.53125 43.757812 14.667969 43.757812 C 14.78125 43.757812 14.867188 43.773438 14.921875 43.828125 L 14.921875 43.496094 C 14.878906 43.484375 14.808594 43.472656 14.726562 43.472656 C 14.613281 43.472656 14.5 43.511719 14.417969 43.578125 C 14.320312 43.664062 14.234375 43.773438 14.191406 43.925781 L 14.179688 43.925781 L 14.179688 43.511719 L 13.855469 43.511719 L 13.855469 45.519531 L 14.179688 45.519531 Z M 16.0625 45.542969 C 16.371094 45.542969 16.621094 45.445312 16.804688 45.253906 C 16.988281 45.0625 17.085938 44.800781 17.085938 44.488281 C 17.085938 44.15625 17 43.910156 16.832031 43.714844 C 16.664062 43.523438 16.425781 43.441406 16.117188 43.441406 C 15.808594 43.441406 15.554688 43.539062 15.371094 43.703125 C 15.175781 43.894531 15.078125 44.171875 15.078125 44.511719 C 15.078125 44.816406 15.164062 45.0625 15.34375 45.253906 C 15.511719 45.445312 15.75 45.542969 16.0625 45.542969 Z M 15.597656 43.925781 C 15.722656 43.800781 15.890625 43.730469 16.085938 43.730469 C 16.296875 43.730469 16.453125 43.800781 16.582031 43.925781 C 16.691406 44.0625 16.761719 44.253906 16.761719 44.5 C 16.761719 44.746094 16.707031 44.941406 16.59375 45.0625 C 16.480469 45.199219 16.3125 45.269531 16.101562 45.269531 C 15.890625 45.269531 15.722656 45.199219 15.597656 45.0625 C 15.472656 44.925781 15.414062 44.746094 15.414062 44.5 C 15.398438 44.253906 15.457031 44.0625 15.597656 43.925781 Z M 18.503906 45.378906 C 18.628906 45.269531 18.699219 45.132812 18.699219 44.96875 C 18.699219 44.816406 18.644531 44.691406 18.542969 44.597656 C 18.460938 44.511719 18.347656 44.445312 18.167969 44.375 C 18.011719 44.308594 17.914062 44.253906 17.855469 44.214844 C 17.800781 44.15625 17.773438 44.101562 17.773438 44.003906 C 17.773438 43.925781 17.800781 43.855469 17.871094 43.8125 C 17.941406 43.757812 18.023438 43.730469 18.136719 43.730469 C 18.320312 43.730469 18.460938 43.773438 18.601562 43.867188 L 18.601562 43.554688 C 18.476562 43.484375 18.320312 43.457031 18.167969 43.457031 C 17.957031 43.457031 17.773438 43.511719 17.648438 43.621094 C 17.503906 43.730469 17.449219 43.867188 17.449219 44.035156 C 17.449219 44.183594 17.492188 44.308594 17.578125 44.390625 C 17.648438 44.472656 17.773438 44.542969 17.941406 44.609375 C 18.109375 44.679688 18.222656 44.746094 18.277344 44.800781 C 18.332031 44.859375 18.363281 44.914062 18.363281 44.996094 C 18.363281 45.1875 18.234375 45.285156 17.96875 45.285156 C 17.773438 45.285156 17.589844 45.214844 17.4375 45.089844 L 17.4375 45.433594 C 17.578125 45.519531 17.746094 45.558594 17.941406 45.558594 C 18.179688 45.542969 18.378906 45.488281 18.503906 45.378906 Z M 20.0625 43.457031 C 19.753906 43.457031 19.5 43.554688 19.316406 43.714844 C 19.121094 43.910156 19.019531 44.183594 19.019531 44.527344 C 19.019531 44.828125 19.109375 45.078125 19.289062 45.269531 C 19.472656 45.460938 19.710938 45.558594 20.019531 45.558594 C 20.328125 45.558594 20.582031 45.460938 20.761719 45.269531 C 20.945312 45.078125 21.042969 44.816406 21.042969 44.5 C 21.042969 44.171875 20.960938 43.925781 20.792969 43.730469 C 20.609375 43.539062 20.371094 43.457031 20.0625 43.457031 Z M 20.707031 44.5 C 20.707031 44.746094 20.648438 44.941406 20.539062 45.0625 C 20.425781 45.199219 20.257812 45.269531 20.046875 45.269531 C 19.835938 45.269531 19.667969 45.199219 19.542969 45.0625 C 19.414062 44.925781 19.359375 44.746094 19.359375 44.5 C 19.359375 44.238281 19.429688 44.046875 19.554688 43.910156 C 19.683594 43.785156 19.851562 43.714844 20.046875 43.714844 C 20.242188 43.714844 20.414062 43.785156 20.523438 43.910156 C 20.648438 44.046875 20.707031 44.238281 20.707031 44.5 Z M 21.589844 45.503906 L 21.914062 45.503906 L 21.914062 43.773438 L 22.390625 43.773438 L 22.390625 43.496094 L 21.914062 43.496094 L 21.914062 43.195312 C 21.914062 42.921875 22.027344 42.769531 22.25 42.769531 C 22.335938 42.769531 22.40625 42.78125 22.460938 42.824219 L 22.460938 42.539062 C 22.40625 42.507812 22.320312 42.507812 22.222656 42.507812 C 22.039062 42.507812 21.902344 42.5625 21.789062 42.675781 C 21.648438 42.796875 21.578125 42.960938 21.578125 43.195312 L 21.578125 43.523438 L 21.226562 43.523438 L 21.226562 43.800781 L 21.578125 43.800781 Z M 22.941406 44.953125 C 22.941406 45.339844 23.121094 45.542969 23.472656 45.542969 C 23.597656 45.542969 23.695312 45.53125 23.78125 45.476562 L 23.78125 45.199219 C 23.726562 45.242188 23.65625 45.269531 23.570312 45.269531 C 23.457031 45.269531 23.386719 45.242188 23.332031 45.1875 C 23.289062 45.132812 23.261719 45.035156 23.261719 44.898438 L 23.261719 43.773438 L 23.78125 43.773438 L 23.78125 43.496094 L 23.261719 43.496094 L 23.261719 42.910156 C 23.152344 42.949219 23.039062 42.976562 22.941406 43.003906 L 22.941406 43.484375 L 22.589844 43.484375 L 22.589844 43.757812 L 22.941406 43.757812 Z M 58.109375 48.648438 C 57.996094 48.550781 57.867188 48.496094 57.703125 48.496094 C 57.53125 48.496094 57.390625 48.550781 57.292969 48.660156 C 57.179688 48.773438 57.125 48.910156 57.125 49.058594 C 57.125 49.222656 57.179688 49.347656 57.292969 49.457031 C 57.40625 49.554688 57.546875 49.609375 57.703125 49.609375 C 57.867188 49.609375 57.996094 49.554688 58.109375 49.441406 C 58.222656 49.335938 58.277344 49.210938 58.277344 49.046875 C 58.289062 48.878906 58.222656 48.742188 58.109375 48.648438 Z M 58.066406 49.402344 C 57.96875 49.5 57.855469 49.539062 57.703125 49.539062 C 57.558594 49.539062 57.433594 49.5 57.335938 49.402344 C 57.238281 49.304688 57.179688 49.183594 57.179688 49.046875 C 57.179688 48.910156 57.222656 48.785156 57.320312 48.6875 C 57.417969 48.59375 57.53125 48.550781 57.6875 48.550781 C 57.824219 48.550781 57.953125 48.59375 58.050781 48.6875 C 58.148438 48.785156 58.207031 48.910156 58.207031 49.046875 C 58.207031 49.183594 58.164062 49.304688 58.066406 49.402344 Z M 57.769531 49.070312 C 57.824219 49.058594 57.867188 49.03125 57.914062 49.003906 C 57.9375 48.976562 57.953125 48.921875 57.953125 48.878906 C 57.953125 48.828125 57.9375 48.785156 57.898438 48.742188 C 57.855469 48.703125 57.785156 48.6875 57.6875 48.6875 L 57.476562 48.6875 L 57.476562 49.402344 L 57.574219 49.402344 L 57.574219 49.101562 L 57.644531 49.101562 C 57.6875 49.101562 57.726562 49.140625 57.769531 49.222656 L 57.855469 49.402344 L 57.980469 49.402344 L 57.882812 49.210938 C 57.839844 49.128906 57.800781 49.085938 57.769531 49.070312 Z M 57.703125 49.003906 L 57.589844 49.003906 L 57.589844 48.773438 L 57.6875 48.773438 C 57.757812 48.773438 57.800781 48.785156 57.824219 48.796875 C 57.855469 48.8125 57.855469 48.839844 57.855469 48.894531 C 57.839844 48.976562 57.800781 49.003906 57.703125 49.003906 Z M 39.40625 43.417969 L 39.507812 43.417969 L 39.507812 42.699219 L 39.742188 42.699219 L 39.742188 42.605469 L 39.167969 42.605469 L 39.167969 42.699219 L 39.40625 42.699219 Z M 39.953125 42.878906 L 39.953125 42.714844 C 39.953125 42.757812 39.96875 42.78125 39.984375 42.796875 L 40.261719 43.417969 L 40.304688 43.417969 L 40.585938 42.796875 C 40.601562 42.78125 40.601562 42.757812 40.617188 42.714844 L 40.617188 43.417969 L 40.714844 43.417969 L 40.714844 42.605469 L 40.601562 42.605469 L 40.347656 43.167969 C 40.347656 43.183594 40.320312 43.222656 40.304688 43.277344 L 40.292969 43.277344 C 40.292969 43.25 40.277344 43.222656 40.25 43.183594 L 39.996094 42.621094 L 39.871094 42.621094 L 39.871094 43.429688 L 39.96875 43.429688 Z M 39.953125 42.878906 "/>
</g>
</svg>
