<?xml version="1.0" encoding="UTF-8"?>
<svg xmlns="http://www.w3.org/2000/svg" xmlns:xlink="http://www.w3.org/1999/xlink" width="65px" height="70px" viewBox="0 0 65 72" version="1.1">
<g id="surface1">
<path style=" stroke:none;fill-rule:nonzero;fill:rgb(89.803922%,35.686275%,17.647059%);fill-opacity:1;" d="M 37.140625 12.332031 L 37.140625 22.851562 L 55.710938 33.371094 L 55.710938 22.851562 Z M 0.0078125 22.851562 L 0.0078125 33.371094 L 9.292969 38.628906 L 9.292969 28.109375 Z M 27.859375 28.109375 L 18.574219 33.371094 L 18.574219 64.925781 L 27.859375 70.183594 L 27.859375 49.148438 L 37.140625 54.410156 L 37.140625 43.890625 L 27.859375 38.628906 Z M 27.859375 28.109375 "/>
<path style=" stroke:none;fill-rule:nonzero;fill:rgb(92.941177%,55.686277%,14.117648%);fill-opacity:1;" d="M 37.140625 12.332031 L 9.292969 28.109375 L 9.292969 38.628906 L 27.859375 28.109375 L 27.859375 38.628906 L 37.144531 33.371094 L 37.144531 12.332031 Z M 64.992188 17.589844 L 55.707031 22.851562 L 55.707031 33.371094 L 64.992188 28.109375 Z M 46.425781 38.628906 L 37.140625 43.890625 L 37.140625 54.410156 L 46.425781 49.148438 Z M 37.140625 54.410156 L 27.859375 49.148438 L 27.859375 70.183594 L 37.140625 64.925781 Z M 37.140625 54.410156 "/>
<path style=" stroke:none;fill-rule:nonzero;fill:rgb(97.254902%,74.901962%,23.529412%);fill-opacity:1;" d="M 37.140625 1.816406 L 0.0078125 22.851562 L 9.292969 28.109375 L 37.140625 12.332031 L 55.710938 22.851562 L 64.996094 17.589844 Z M 37.140625 33.371094 L 27.859375 38.628906 L 37.140625 43.886719 L 46.425781 38.628906 Z M 37.140625 33.371094 "/>
</g>
</svg>
